<?xml version="1.0" encoding="UTF-8"?>
<svg id="Layer_1" xmlns="http://www.w3.org/2000/svg" version="1.1" viewBox="0 0 43 14">
  <!-- Generator: Adobe Illustrator 29.3.1, SVG Export Plug-In . SVG Version: 2.1.0 Build 151)  -->
  <defs>
    <style>
      .st0 {
        fill: #fff;
      }

      .st1 {
        fill: #dc2727;
      }
    </style>
  </defs>
  <g>
    <path d="M9.3,4.4h-2.4v7.2h-1.4v-7.2h-2.4v-1.2h6.2s0,1.2,0,1.2Z"/>
    <path d="M12,11.6h-1.4V3.2h1.4v8.4Z"/>
    <path d="M23.1,11.6h-1.4v-7h0c0,.4-.2.6-.2.8l-2.5,6.3h-1l-2.5-6.2c0-.2-.1-.5-.2-.8h0v7h-1.3V3.2h2l2.2,5.6c.2.4.3.8.3,1h0c.1-.4.3-.8.4-1l2.2-5.6h1.9v8.4h.1Z"/>
    <path d="M25.2,11.6V3.2h2.7c.8,0,1.5.2,1.9.5s.7.8.7,1.4-.1.9-.4,1.2-.6.6-1.1.8h0c.6,0,1,.3,1.4.7s.5.8.5,1.4-.3,1.3-.8,1.7-1.3.7-2.1.7c0,0-2.8,0-2.8,0ZM26.5,4.3v2.4h.9c.5,0,.9,0,1.1-.3s.4-.6.4-1c0-.7-.5-1.1-1.4-1.1h-1ZM26.5,7.8v2.7h1.2c.5,0,.9-.1,1.2-.4s.4-.6.4-1c0-.9-.6-1.3-1.8-1.3h-1Z"/>
  </g>
  <circle cx="36" cy="7.4" r="4.2"/>
  <circle class="st0" cx="36" cy="7.4" r="2.9"/>
  <circle class="st1" cx="36" cy="7.4" r="2.8"/>
</svg>